<?xml version="1.0" standalone="no"?>
<!DOCTYPE svg PUBLIC "-//W3C//DTD SVG 20010904//EN"
 "http://www.w3.org/TR/2001/REC-SVG-20010904/DTD/svg10.dtd">
<svg version="1.0" xmlns="http://www.w3.org/2000/svg"
 width="219.000000pt" height="219.000000pt" viewBox="0 0 219.000000 219.000000"
 preserveAspectRatio="xMidYMid meet">
<metadata>
Created by potrace 1.11, written by Peter Selinger 2001-2013
</metadata>
<g transform="translate(0.000000,219.000000) scale(0.100000,-0.100000)"
fill="#000000" stroke="none">
<path d="M855 2081 c-70 -23 -76 -28 -134 -104 -47 -63 -101 -171 -101 -204 0
-7 -15 -30 -33 -50 -18 -21 -45 -57 -59 -79 -15 -23 -85 -94 -157 -158 -71
-64 -133 -125 -136 -136 -5 -14 5 -38 30 -75 31 -48 39 -54 61 -49 34 9 63
-29 64 -81 0 -22 7 -78 15 -125 8 -47 15 -107 15 -133 0 -27 6 -63 14 -80 8
-18 28 -64 46 -103 41 -91 83 -132 193 -185 83 -40 86 -43 71 -60 -19 -21 -13
-47 13 -56 10 -3 25 -12 33 -18 8 -7 30 -16 48 -20 31 -6 33 -5 27 14 -5 16
-1 22 19 27 14 3 23 10 20 15 -3 5 9 9 25 9 17 0 31 -4 31 -8 0 -12 142 5 209
24 90 26 142 58 173 109 15 25 28 48 28 52 0 5 9 19 20 33 11 14 20 32 20 41
0 9 9 38 21 64 11 25 18 49 16 52 -3 2 -8 -5 -12 -16 -9 -31 -41 -43 -88 -36
-48 7 -214 59 -267 82 -27 12 -81 17 -240 20 -113 1 -228 8 -256 13 -55 12
-91 43 -133 112 -21 35 -22 43 -12 115 5 43 17 99 25 126 l15 47 -32 1 c-25 0
-20 4 26 15 31 7 70 20 86 28 15 8 38 12 51 9 14 -4 21 -2 17 4 -12 19 68 46
115 39 51 -8 128 -32 186 -58 50 -22 62 -18 62 23 0 25 -6 33 -37 46 -53 23
-212 52 -246 46 -23 -5 -26 -3 -21 13 4 11 10 24 14 29 13 18 31 79 36 120 3
21 10 60 15 85 6 25 10 58 9 74 0 17 2 27 6 23 4 -3 23 6 43 22 20 16 62 42
94 57 55 27 59 28 114 15 32 -7 96 -17 143 -22 47 -5 97 -11 112 -15 32 -6
144 -123 164 -171 8 -18 16 -86 19 -160 5 -130 15 -193 43 -272 17 -49 12
-235 -8 -304 -6 -21 -10 -48 -8 -60 3 -19 55 100 82 186 3 10 12 17 19 14 16
-5 137 59 160 86 28 31 6 113 -69 256 -47 92 -84 236 -84 332 0 37 -10 71 -41
136 -22 47 -46 91 -52 97 -38 37 -93 70 -121 73 -102 8 -203 10 -217 2 -10 -5
-31 0 -60 15 -35 19 -177 60 -191 55 -2 -1 -25 -9 -53 -18z m-275 -562 c0 -26
-64 -121 -110 -162 -48 -43 -110 -75 -110 -57 0 4 15 18 34 29 46 29 120 110
145 160 20 39 41 54 41 30z m1017 -221 c-3 -8 -6 -5 -6 6 -1 11 2 17 5 13 3
-3 4 -12 1 -19z m58 -156 c-2 -3 -9 6 -14 19 -5 13 -16 41 -25 63 -9 21 -16
44 -16 50 0 6 14 -20 30 -58 16 -38 28 -72 25 -74z m-640 -377 c33 -3 74 -9
90 -12 28 -5 29 -6 8 -14 -37 -13 -176 11 -190 33 -3 6 2 8 13 5 11 -3 46 -9
79 -12z m-136 -46 c49 -48 95 -69 152 -69 34 0 47 6 76 35 19 19 42 35 50 35
24 0 42 -31 42 -70 0 -43 -40 -139 -63 -152 -11 -6 -41 -4 -89 8 -40 9 -99 19
-132 21 -136 10 -145 18 -145 131 0 60 1 63 33 82 17 11 33 20 34 20 1 0 20
-18 42 -41z m67 11 c15 -6 58 -11 95 -12 68 -1 69 -2 51 -21 -14 -16 -26 -18
-75 -14 -56 5 -107 27 -107 47 0 12 2 12 36 0z m-66 -300 c0 -5 -4 -10 -10
-10 -5 0 -10 5 -10 10 0 6 5 10 10 10 6 0 10 -4 10 -10z"/>
<path d="M1171 1312 c-26 -50 -20 -53 102 -46 99 5 116 3 150 -14 42 -22 43
-22 22 18 -22 43 -47 52 -160 58 -97 4 -103 3 -114 -16z"/>
<path d="M580 1299 c0 -5 5 -7 10 -4 6 3 10 8 10 11 0 2 -4 4 -10 4 -5 0 -10
-5 -10 -11z"/>
<path d="M687 1269 c-44 -23 -66 -62 -51 -87 17 -27 36 -27 29 0 -4 16 -1 29
9 37 14 12 16 9 16 -17 0 -35 20 -59 57 -68 32 -9 74 22 89 65 10 32 10 32 29
12 14 -17 15 -23 5 -36 -13 -16 -8 -18 28 -9 54 15 3 92 -76 114 -54 15 -92
12 -135 -11z"/>
<path d="M1223 1190 c-47 -24 -52 -38 -25 -63 24 -22 33 -22 25 -1 -4 11 1 22
12 30 27 20 30 18 31 -27 0 -47 21 -69 65 -69 21 0 30 8 44 37 16 32 19 34 28
18 7 -13 6 -24 -2 -38 -10 -15 -10 -18 1 -15 24 9 15 86 -13 114 -36 36 -111
42 -166 14z"/>
<path d="M1075 850 c-3 -5 -1 -10 4 -10 6 0 11 5 11 10 0 6 -2 10 -4 10 -3 0
-8 -4 -11 -10z"/>
<path d="M601 441 c-6 -10 -13 -37 -17 -60 -12 -73 31 -45 85 57 11 21 10 22
-23 22 -24 0 -38 -6 -45 -19z"/>
<path d="M307 383 c-9 -2 -15 -9 -12 -14 4 -5 -9 -9 -27 -9 -18 0 -28 -4 -21
-8 6 -4 21 -42 34 -84 12 -43 26 -78 31 -78 4 0 8 -13 8 -29 0 -17 5 -33 11
-36 5 -4 15 -18 20 -32 5 -14 18 -27 29 -30 11 -3 20 -11 20 -19 0 -7 10 -20
22 -28 26 -19 118 -22 118 -5 0 8 5 8 15 -1 12 -10 15 -10 15 4 0 9 -6 16 -12
17 -7 0 -3 4 8 9 30 12 39 50 12 50 -18 0 -18 1 -3 16 15 16 14 18 -17 32 -18
8 -48 22 -66 31 l-33 16 25 20 c30 24 33 58 12 110 -11 25 -11 35 -3 38 23 8
2 14 -35 10 -29 -4 -42 -13 -62 -44 -14 -21 -26 -48 -26 -59 0 -11 -6 -20 -14
-20 -16 0 -11 23 14 85 20 46 20 55 0 55 -10 0 -24 2 -32 4 -7 2 -21 2 -31 -1z
m273 -313 c0 -5 -5 -10 -11 -10 -5 0 -7 5 -4 10 3 6 8 10 11 10 2 0 4 -4 4
-10z"/>
<path d="M1077 313 c1 -32 2 -66 3 -75 0 -30 15 -20 33 20 23 52 22 89 -2 102
-33 17 -36 12 -34 -47z"/>
<path d="M161 334 c0 -11 3 -14 6 -6 3 7 2 16 -1 19 -3 4 -6 -2 -5 -13z"/>
<path d="M152 275 c0 -16 2 -22 5 -12 2 9 2 23 0 30 -3 6 -5 -1 -5 -18z"/>
<path d="M136 199 c-4 -23 -5 -44 -2 -46 2 -2 7 14 11 37 4 23 5 43 2 46 -2 3
-7 -14 -11 -37z"/>
<path d="M102 200 c0 -19 2 -27 5 -17 2 9 2 25 0 35 -3 9 -5 1 -5 -18z"/>
<path d="M92 135 c0 -16 2 -22 5 -12 2 9 2 23 0 30 -3 6 -5 -1 -5 -18z"/>
<path d="M1288 147 c10 -12 9 -58 -4 -120 -5 -25 -3 -27 24 -27 32 0 42 17 42
76 0 16 5 35 11 41 8 8 3 13 -20 18 -17 3 -33 11 -36 16 -4 5 -11 9 -17 9 -7
0 -7 -4 0 -13z"/>
<path d="M122 115 c0 -16 2 -22 5 -12 2 9 2 23 0 30 -3 6 -5 -1 -5 -18z"/>
<path d="M0 36 c0 -25 4 -36 15 -36 20 0 20 44 0 60 -13 11 -15 7 -15 -24z"/>
<path d="M57 50 c-19 -27 -22 -50 -7 -50 6 0 10 6 10 14 0 8 5 16 11 18 6 2
10 13 7 23 -3 19 -5 18 -21 -5z"/>
<path d="M106 59 c-11 -36 -13 -59 -6 -59 10 0 24 59 16 67 -3 3 -7 0 -10 -8z"/>
<path d="M1200 56 c0 -8 -16 -17 -35 -20 -56 -11 -40 -26 25 -24 33 1 60 4 60
6 0 3 -11 15 -25 28 -16 15 -25 18 -25 10z"/>
<path d="M1360 53 c0 -13 5 -23 10 -23 13 0 13 11 0 30 -8 12 -10 11 -10 -7z"/>
<path d="M1011 14 c0 -11 3 -14 6 -6 3 7 2 16 -1 19 -3 4 -6 -2 -5 -13z"/>
</g>
</svg>
